<mxfile host="Electron" agent="Mozilla/5.0 (Windows NT 10.0; Win64; x64) AppleWebKit/537.36 (KHTML, like Gecko) draw.io/26.1.1 Chrome/132.0.6834.210 Electron/34.3.3 Safari/537.36" version="26.1.1">
  <diagram name="Σελίδα-1" id="nkgWYH0xGODRcyzE1V1-">
    <mxGraphModel dx="1600" dy="760" grid="1" gridSize="10" guides="1" tooltips="1" connect="1" arrows="1" fold="1" page="1" pageScale="1" pageWidth="827" pageHeight="1169" math="0" shadow="0">
      <root>
        <mxCell id="0" />
        <mxCell id="1" parent="0" />
        <mxCell id="aRj3tGoNgCXzdDJv9T8T-1" value="Actor" style="shape=umlActor;verticalLabelPosition=bottom;verticalAlign=top;html=1;" vertex="1" parent="1">
          <mxGeometry x="370" y="757" width="40" height="66" as="geometry" />
        </mxCell>
        <mxCell id="aRj3tGoNgCXzdDJv9T8T-2" value="" style="shape=umlBoundary;whiteSpace=wrap;html=1;" vertex="1" parent="1">
          <mxGeometry x="710" y="686" width="110" height="90" as="geometry" />
        </mxCell>
        <mxCell id="aRj3tGoNgCXzdDJv9T8T-3" value="" style="shape=umlBoundary;whiteSpace=wrap;html=1;" vertex="1" parent="1">
          <mxGeometry x="707" y="871" width="116" height="84" as="geometry" />
        </mxCell>
        <mxCell id="aRj3tGoNgCXzdDJv9T8T-4" style="edgeStyle=orthogonalEdgeStyle;rounded=0;orthogonalLoop=1;jettySize=auto;html=1;exitX=1;exitY=0.5;exitDx=0;exitDy=0;" edge="1" parent="1">
          <mxGeometry relative="1" as="geometry">
            <mxPoint x="749" y="880" as="sourcePoint" />
            <mxPoint x="749" y="880" as="targetPoint" />
          </mxGeometry>
        </mxCell>
        <mxCell id="aRj3tGoNgCXzdDJv9T8T-5" value="βάση δεδομένων" style="ellipse;shape=umlEntity;whiteSpace=wrap;html=1;" vertex="1" parent="1">
          <mxGeometry x="1460" y="1150" width="80" height="80" as="geometry" />
        </mxCell>
        <mxCell id="aRj3tGoNgCXzdDJv9T8T-6" value="" style="shape=umlBoundary;whiteSpace=wrap;html=1;" vertex="1" parent="1">
          <mxGeometry x="713" y="1028" width="110" height="90" as="geometry" />
        </mxCell>
        <mxCell id="aRj3tGoNgCXzdDJv9T8T-7" value="Δημιουργία αναφοράς προς έλεγχο" style="ellipse;shape=umlEntity;whiteSpace=wrap;html=1;" vertex="1" parent="1">
          <mxGeometry x="1460" y="920" width="80" height="80" as="geometry" />
        </mxCell>
        <mxCell id="aRj3tGoNgCXzdDJv9T8T-8" value="Εμφανίζει αποτέλεσμα" style="ellipse;shape=umlControl;whiteSpace=wrap;html=1;" vertex="1" parent="1">
          <mxGeometry x="870" y="1390" width="90" height="100" as="geometry" />
        </mxCell>
        <mxCell id="aRj3tGoNgCXzdDJv9T8T-9" value="Ενεργοποιεί την κάμερα της συσκευής&amp;nbsp;" style="ellipse;shape=umlControl;whiteSpace=wrap;html=1;" vertex="1" parent="1">
          <mxGeometry x="880" y="781" width="80" height="90" as="geometry" />
        </mxCell>
        <mxCell id="aRj3tGoNgCXzdDJv9T8T-10" value="Εμφάνιση ενημερωτικής οθόνης" style="ellipse;shape=umlControl;whiteSpace=wrap;html=1;fillColor=#FF0000;" vertex="1" parent="1">
          <mxGeometry x="1010" y="510" width="70" height="80" as="geometry" />
        </mxCell>
        <mxCell id="aRj3tGoNgCXzdDJv9T8T-11" value="" style="shape=umlBoundary;whiteSpace=wrap;html=1;fillColor=#FF0000;" vertex="1" parent="1">
          <mxGeometry x="723" y="550" width="100" height="80" as="geometry" />
        </mxCell>
        <mxCell id="aRj3tGoNgCXzdDJv9T8T-12" value="κουμπί δημιουργία αναφοράς περιστατικού" style="text;html=1;align=center;verticalAlign=middle;resizable=0;points=[];autosize=1;strokeColor=none;fillColor=none;" vertex="1" parent="1">
          <mxGeometry x="430" y="743" width="246" height="26" as="geometry" />
        </mxCell>
        <mxCell id="aRj3tGoNgCXzdDJv9T8T-13" value="φόρμα δημιουργίας αναφοράς&amp;nbsp;" style="text;html=1;align=center;verticalAlign=middle;resizable=0;points=[];autosize=1;strokeColor=none;fillColor=none;" vertex="1" parent="1">
          <mxGeometry x="669" y="660" width="181" height="26" as="geometry" />
        </mxCell>
        <mxCell id="aRj3tGoNgCXzdDJv9T8T-14" value="Επιλέγει λήψη φωτογραφίας" style="text;html=1;align=center;verticalAlign=middle;resizable=0;points=[];autosize=1;strokeColor=none;fillColor=none;" vertex="1" parent="1">
          <mxGeometry x="470" y="823" width="168" height="26" as="geometry" />
        </mxCell>
        <mxCell id="aRj3tGoNgCXzdDJv9T8T-15" value="Ζητά άδεια πρόσβασης" style="ellipse;shape=umlControl;whiteSpace=wrap;html=1;" vertex="1" parent="1">
          <mxGeometry x="1022" y="733" width="80" height="90" as="geometry" />
        </mxCell>
        <mxCell id="aRj3tGoNgCXzdDJv9T8T-16" value="Λήψη φωτογραφίας" style="ellipse;shape=umlControl;whiteSpace=wrap;html=1;" vertex="1" parent="1">
          <mxGeometry x="1250" y="733" width="80" height="90" as="geometry" />
        </mxCell>
        <mxCell id="aRj3tGoNgCXzdDJv9T8T-17" value="Εμφανίζει την φωτογραφία στην φόρμα" style="ellipse;shape=umlControl;whiteSpace=wrap;html=1;" vertex="1" parent="1">
          <mxGeometry x="920" y="910" width="80" height="90" as="geometry" />
        </mxCell>
        <mxCell id="aRj3tGoNgCXzdDJv9T8T-18" value="Σελίδα υποβολής φόρμας αναφοράς&amp;nbsp;" style="text;html=1;align=center;verticalAlign=middle;resizable=0;points=[];autosize=1;strokeColor=none;fillColor=none;" vertex="1" parent="1">
          <mxGeometry x="661" y="996" width="214" height="26" as="geometry" />
        </mxCell>
        <mxCell id="aRj3tGoNgCXzdDJv9T8T-19" value="Συμπληρώνει σχόλια και τοποθεσία" style="text;html=1;align=center;verticalAlign=middle;resizable=0;points=[];autosize=1;strokeColor=none;fillColor=none;" vertex="1" parent="1">
          <mxGeometry x="507" y="953" width="206" height="26" as="geometry" />
        </mxCell>
        <mxCell id="aRj3tGoNgCXzdDJv9T8T-20" value="Δημιουργεί την αναφορά" style="ellipse;shape=umlControl;whiteSpace=wrap;html=1;" vertex="1" parent="1">
          <mxGeometry x="1080" y="970" width="80" height="90" as="geometry" />
        </mxCell>
        <mxCell id="aRj3tGoNgCXzdDJv9T8T-21" value="Αν δώσει άδεια" style="text;html=1;align=center;verticalAlign=middle;resizable=0;points=[];autosize=1;strokeColor=none;fillColor=none;" vertex="1" parent="1">
          <mxGeometry x="1110" y="733" width="99" height="26" as="geometry" />
        </mxCell>
        <mxCell id="aRj3tGoNgCXzdDJv9T8T-22" value="Αν δεν δώσει άδεια" style="text;html=1;align=center;verticalAlign=middle;resizable=0;points=[];autosize=1;strokeColor=none;fillColor=none;" vertex="1" parent="1">
          <mxGeometry x="1032" y="660" width="120" height="26" as="geometry" />
        </mxCell>
        <mxCell id="aRj3tGoNgCXzdDJv9T8T-23" value="Σελίδα &#39;&#39;Απαιτείται άδεια&quot;" style="text;html=1;align=center;verticalAlign=middle;resizable=0;points=[];autosize=1;strokeColor=none;fillColor=none;" vertex="1" parent="1">
          <mxGeometry x="707" y="524" width="150" height="26" as="geometry" />
        </mxCell>
        <mxCell id="aRj3tGoNgCXzdDJv9T8T-24" value="" style="endArrow=classic;html=1;rounded=0;exitX=1;exitY=0.3333333333333333;exitDx=0;exitDy=0;exitPerimeter=0;entryX=0.033;entryY=0.538;entryDx=0;entryDy=0;entryPerimeter=0;" edge="1" parent="1" source="aRj3tGoNgCXzdDJv9T8T-1" target="aRj3tGoNgCXzdDJv9T8T-2">
          <mxGeometry width="50" height="50" relative="1" as="geometry">
            <mxPoint x="900" y="970" as="sourcePoint" />
            <mxPoint x="950" y="920" as="targetPoint" />
          </mxGeometry>
        </mxCell>
        <mxCell id="aRj3tGoNgCXzdDJv9T8T-25" value="" style="endArrow=classic;html=1;rounded=0;exitX=1;exitY=0.3333333333333333;exitDx=0;exitDy=0;exitPerimeter=0;entryX=0.014;entryY=0.561;entryDx=0;entryDy=0;entryPerimeter=0;" edge="1" parent="1" source="aRj3tGoNgCXzdDJv9T8T-1" target="aRj3tGoNgCXzdDJv9T8T-3">
          <mxGeometry width="50" height="50" relative="1" as="geometry">
            <mxPoint x="900" y="970" as="sourcePoint" />
            <mxPoint x="950" y="920" as="targetPoint" />
          </mxGeometry>
        </mxCell>
        <mxCell id="aRj3tGoNgCXzdDJv9T8T-26" value="" style="endArrow=classic;html=1;rounded=0;exitX=1;exitY=0.3333333333333333;exitDx=0;exitDy=0;exitPerimeter=0;entryX=-0.055;entryY=0.544;entryDx=0;entryDy=0;entryPerimeter=0;" edge="1" parent="1" source="aRj3tGoNgCXzdDJv9T8T-1" target="aRj3tGoNgCXzdDJv9T8T-6">
          <mxGeometry width="50" height="50" relative="1" as="geometry">
            <mxPoint x="900" y="970" as="sourcePoint" />
            <mxPoint x="950" y="920" as="targetPoint" />
          </mxGeometry>
        </mxCell>
        <mxCell id="aRj3tGoNgCXzdDJv9T8T-27" value="Κάμερα" style="text;html=1;align=center;verticalAlign=middle;resizable=0;points=[];autosize=1;strokeColor=none;fillColor=none;" vertex="1" parent="1">
          <mxGeometry x="740" y="838" width="60" height="30" as="geometry" />
        </mxCell>
        <mxCell id="aRj3tGoNgCXzdDJv9T8T-28" value="" style="endArrow=classic;html=1;rounded=0;exitX=0.987;exitY=0.521;exitDx=0;exitDy=0;exitPerimeter=0;entryX=0;entryY=0.556;entryDx=0;entryDy=0;entryPerimeter=0;" edge="1" parent="1" source="aRj3tGoNgCXzdDJv9T8T-3" target="aRj3tGoNgCXzdDJv9T8T-9">
          <mxGeometry width="50" height="50" relative="1" as="geometry">
            <mxPoint x="900" y="970" as="sourcePoint" />
            <mxPoint x="950" y="920" as="targetPoint" />
          </mxGeometry>
        </mxCell>
        <mxCell id="aRj3tGoNgCXzdDJv9T8T-29" value="" style="endArrow=classic;html=1;rounded=0;exitX=1.046;exitY=0.547;exitDx=0;exitDy=0;exitPerimeter=0;entryX=0.021;entryY=0.469;entryDx=0;entryDy=0;entryPerimeter=0;" edge="1" parent="1" source="aRj3tGoNgCXzdDJv9T8T-9" target="aRj3tGoNgCXzdDJv9T8T-15">
          <mxGeometry width="50" height="50" relative="1" as="geometry">
            <mxPoint x="900" y="970" as="sourcePoint" />
            <mxPoint x="950" y="920" as="targetPoint" />
          </mxGeometry>
        </mxCell>
        <mxCell id="aRj3tGoNgCXzdDJv9T8T-30" value="" style="endArrow=classic;html=1;rounded=0;entryX=0.074;entryY=0.333;entryDx=0;entryDy=0;entryPerimeter=0;" edge="1" parent="1" source="aRj3tGoNgCXzdDJv9T8T-15" target="aRj3tGoNgCXzdDJv9T8T-16">
          <mxGeometry width="50" height="50" relative="1" as="geometry">
            <mxPoint x="900" y="810" as="sourcePoint" />
            <mxPoint x="950" y="760" as="targetPoint" />
          </mxGeometry>
        </mxCell>
        <mxCell id="aRj3tGoNgCXzdDJv9T8T-31" value="" style="endArrow=classic;html=1;rounded=0;exitX=0.854;exitY=0.365;exitDx=0;exitDy=0;exitPerimeter=0;entryX=0.862;entryY=1.004;entryDx=0;entryDy=0;entryPerimeter=0;" edge="1" parent="1" source="aRj3tGoNgCXzdDJv9T8T-15" target="aRj3tGoNgCXzdDJv9T8T-10">
          <mxGeometry width="50" height="50" relative="1" as="geometry">
            <mxPoint x="900" y="970" as="sourcePoint" />
            <mxPoint x="950" y="920" as="targetPoint" />
          </mxGeometry>
        </mxCell>
        <mxCell id="aRj3tGoNgCXzdDJv9T8T-32" value="" style="endArrow=classic;html=1;rounded=0;exitX=0.185;exitY=0.946;exitDx=0;exitDy=0;exitPerimeter=0;entryX=0.836;entryY=0.214;entryDx=0;entryDy=0;entryPerimeter=0;" edge="1" parent="1" source="aRj3tGoNgCXzdDJv9T8T-16" target="aRj3tGoNgCXzdDJv9T8T-17">
          <mxGeometry width="50" height="50" relative="1" as="geometry">
            <mxPoint x="900" y="970" as="sourcePoint" />
            <mxPoint x="950" y="920" as="targetPoint" />
          </mxGeometry>
        </mxCell>
        <mxCell id="aRj3tGoNgCXzdDJv9T8T-33" value="" style="endArrow=classic;html=1;rounded=0;exitX=0.726;exitY=0.88;exitDx=0;exitDy=0;exitPerimeter=0;entryX=0.09;entryY=0.525;entryDx=0;entryDy=0;entryPerimeter=0;" edge="1" parent="1" source="aRj3tGoNgCXzdDJv9T8T-17" target="aRj3tGoNgCXzdDJv9T8T-20">
          <mxGeometry width="50" height="50" relative="1" as="geometry">
            <mxPoint x="900" y="970" as="sourcePoint" />
            <mxPoint x="950" y="920" as="targetPoint" />
          </mxGeometry>
        </mxCell>
        <mxCell id="aRj3tGoNgCXzdDJv9T8T-34" value="" style="endArrow=classic;html=1;rounded=0;exitX=0.046;exitY=0.67;exitDx=0;exitDy=0;exitPerimeter=0;entryX=0.976;entryY=0.458;entryDx=0;entryDy=0;entryPerimeter=0;" edge="1" parent="1" source="aRj3tGoNgCXzdDJv9T8T-20" target="aRj3tGoNgCXzdDJv9T8T-6">
          <mxGeometry width="50" height="50" relative="1" as="geometry">
            <mxPoint x="900" y="970" as="sourcePoint" />
            <mxPoint x="950" y="920" as="targetPoint" />
          </mxGeometry>
        </mxCell>
        <mxCell id="aRj3tGoNgCXzdDJv9T8T-35" value="" style="endArrow=classic;html=1;rounded=0;exitX=0.963;exitY=0.473;exitDx=0;exitDy=0;exitPerimeter=0;entryX=0.004;entryY=0.671;entryDx=0;entryDy=0;entryPerimeter=0;" edge="1" parent="1" source="aRj3tGoNgCXzdDJv9T8T-20" target="aRj3tGoNgCXzdDJv9T8T-7">
          <mxGeometry width="50" height="50" relative="1" as="geometry">
            <mxPoint x="900" y="970" as="sourcePoint" />
            <mxPoint x="950" y="920" as="targetPoint" />
          </mxGeometry>
        </mxCell>
        <mxCell id="aRj3tGoNgCXzdDJv9T8T-36" value="Καταχωρεί τα δεδομένα" style="ellipse;shape=umlControl;whiteSpace=wrap;html=1;" vertex="1" parent="1">
          <mxGeometry x="1015" y="1290" width="70" height="80" as="geometry" />
        </mxCell>
        <mxCell id="aRj3tGoNgCXzdDJv9T8T-37" value="" style="endArrow=classic;html=1;rounded=0;exitX=1.044;exitY=0.615;exitDx=0;exitDy=0;exitPerimeter=0;entryX=0.046;entryY=0.671;entryDx=0;entryDy=0;entryPerimeter=0;" edge="1" parent="1" source="aRj3tGoNgCXzdDJv9T8T-36" target="aRj3tGoNgCXzdDJv9T8T-5">
          <mxGeometry width="50" height="50" relative="1" as="geometry">
            <mxPoint x="900" y="1140" as="sourcePoint" />
            <mxPoint x="950" y="1090" as="targetPoint" />
          </mxGeometry>
        </mxCell>
        <mxCell id="aRj3tGoNgCXzdDJv9T8T-38" value="" style="endArrow=classic;html=1;rounded=0;exitX=0.457;exitY=0.99;exitDx=0;exitDy=0;exitPerimeter=0;entryX=0.954;entryY=0.37;entryDx=0;entryDy=0;entryPerimeter=0;" edge="1" parent="1" source="aRj3tGoNgCXzdDJv9T8T-36" target="aRj3tGoNgCXzdDJv9T8T-8">
          <mxGeometry width="50" height="50" relative="1" as="geometry">
            <mxPoint x="900" y="1140" as="sourcePoint" />
            <mxPoint x="950" y="1090" as="targetPoint" />
          </mxGeometry>
        </mxCell>
        <mxCell id="aRj3tGoNgCXzdDJv9T8T-39" value="" style="shape=umlBoundary;whiteSpace=wrap;html=1;" vertex="1" parent="1">
          <mxGeometry x="709.5" y="1300" width="100" height="80" as="geometry" />
        </mxCell>
        <mxCell id="aRj3tGoNgCXzdDJv9T8T-40" value="Επιτυχία υποβολής" style="text;html=1;align=center;verticalAlign=middle;resizable=0;points=[];autosize=1;strokeColor=none;fillColor=none;" vertex="1" parent="1">
          <mxGeometry x="703" y="1270" width="130" height="30" as="geometry" />
        </mxCell>
        <mxCell id="aRj3tGoNgCXzdDJv9T8T-41" value="" style="endArrow=classic;html=1;rounded=0;exitX=0.09;exitY=0.77;exitDx=0;exitDy=0;exitPerimeter=0;entryX=0.978;entryY=0.407;entryDx=0;entryDy=0;entryPerimeter=0;" edge="1" parent="1" source="aRj3tGoNgCXzdDJv9T8T-8" target="aRj3tGoNgCXzdDJv9T8T-39">
          <mxGeometry width="50" height="50" relative="1" as="geometry">
            <mxPoint x="900" y="1140" as="sourcePoint" />
            <mxPoint x="950" y="1090" as="targetPoint" />
          </mxGeometry>
        </mxCell>
        <mxCell id="aRj3tGoNgCXzdDJv9T8T-42" value="" style="endArrow=classic;html=1;rounded=0;exitX=0;exitY=0.75;exitDx=0;exitDy=0;exitPerimeter=0;entryX=0.979;entryY=0.699;entryDx=0;entryDy=0;entryPerimeter=0;" edge="1" parent="1" source="aRj3tGoNgCXzdDJv9T8T-10" target="aRj3tGoNgCXzdDJv9T8T-11">
          <mxGeometry width="50" height="50" relative="1" as="geometry">
            <mxPoint x="900" y="720" as="sourcePoint" />
            <mxPoint x="950" y="670" as="targetPoint" />
          </mxGeometry>
        </mxCell>
        <mxCell id="aRj3tGoNgCXzdDJv9T8T-43" value="" style="endArrow=classic;html=1;rounded=0;exitX=0.525;exitY=1.011;exitDx=0;exitDy=0;exitPerimeter=0;" edge="1" parent="1" source="aRj3tGoNgCXzdDJv9T8T-20" target="aRj3tGoNgCXzdDJv9T8T-45">
          <mxGeometry width="50" height="50" relative="1" as="geometry">
            <mxPoint x="1091.4" y="1172.53" as="sourcePoint" />
            <mxPoint x="1260" y="1380" as="targetPoint" />
          </mxGeometry>
        </mxCell>
        <mxCell id="aRj3tGoNgCXzdDJv9T8T-44" value="Αν δεν έχουν συμπληρωθεί όλα" style="edgeLabel;html=1;align=center;verticalAlign=middle;resizable=0;points=[];" vertex="1" connectable="0" parent="aRj3tGoNgCXzdDJv9T8T-43">
          <mxGeometry x="-0.5162" y="4" relative="1" as="geometry">
            <mxPoint as="offset" />
          </mxGeometry>
        </mxCell>
        <mxCell id="aRj3tGoNgCXzdDJv9T8T-45" value="Εμφανίζει" style="ellipse;shape=umlControl;whiteSpace=wrap;html=1;fillColor=#FF0000;" vertex="1" parent="1">
          <mxGeometry x="1152" y="1130" width="70" height="80" as="geometry" />
        </mxCell>
        <mxCell id="aRj3tGoNgCXzdDJv9T8T-46" value="" style="endArrow=classic;html=1;rounded=0;exitX=0.029;exitY=0.657;exitDx=0;exitDy=0;exitPerimeter=0;" edge="1" parent="1" source="aRj3tGoNgCXzdDJv9T8T-45" target="aRj3tGoNgCXzdDJv9T8T-47">
          <mxGeometry width="50" height="50" relative="1" as="geometry">
            <mxPoint x="940" y="1550" as="sourcePoint" />
            <mxPoint x="800" y="1670" as="targetPoint" />
          </mxGeometry>
        </mxCell>
        <mxCell id="aRj3tGoNgCXzdDJv9T8T-47" value="" style="shape=umlBoundary;whiteSpace=wrap;html=1;fillColor=#FF0000;" vertex="1" parent="1">
          <mxGeometry x="713" y="1170" width="100" height="80" as="geometry" />
        </mxCell>
        <mxCell id="aRj3tGoNgCXzdDJv9T8T-48" value="Εμφάνιση της φόρμας αναφοράς" style="ellipse;shape=umlControl;whiteSpace=wrap;html=1;fillColor=#FF0000;" vertex="1" parent="1">
          <mxGeometry x="920" y="590" width="80" height="90" as="geometry" />
        </mxCell>
        <mxCell id="aRj3tGoNgCXzdDJv9T8T-49" value="" style="endArrow=classic;html=1;rounded=0;exitX=0.72;exitY=0.963;exitDx=0;exitDy=0;exitPerimeter=0;entryX=0.038;entryY=0.633;entryDx=0;entryDy=0;entryPerimeter=0;" edge="1" parent="1" source="aRj3tGoNgCXzdDJv9T8T-11" target="aRj3tGoNgCXzdDJv9T8T-48">
          <mxGeometry width="50" height="50" relative="1" as="geometry">
            <mxPoint x="880" y="648" as="sourcePoint" />
            <mxPoint x="691" y="630" as="targetPoint" />
          </mxGeometry>
        </mxCell>
        <mxCell id="aRj3tGoNgCXzdDJv9T8T-50" value="Μήνυμα:΄΄΄Παρακαλώ συμπληρώστε όλα τα απαιτούμενα πεδία.&#39;&#39;&lt;span style=&quot;font-size:12.0pt;line-height:115%;&lt;br/&gt;font-family:&amp;quot;Calibri&amp;quot;,&amp;quot;sans-serif&amp;quot;;mso-ascii-theme-font:minor-latin;mso-fareast-font-family:&lt;br/&gt;Calibri;mso-fareast-theme-font:minor-latin;mso-hansi-theme-font:minor-latin;&lt;br/&gt;mso-bidi-font-family:&amp;quot;Times New Roman&amp;quot;;mso-bidi-theme-font:minor-bidi;&lt;br/&gt;mso-ansi-language:EL;mso-fareast-language:EN-US;mso-bidi-language:AR-SA&quot;&gt;&lt;br&gt;&lt;/span&gt;" style="text;html=1;align=center;verticalAlign=middle;resizable=0;points=[];autosize=1;strokeColor=none;fillColor=none;" vertex="1" parent="1">
          <mxGeometry x="574.5" y="1140" width="370" height="30" as="geometry" />
        </mxCell>
        <mxCell id="aRj3tGoNgCXzdDJv9T8T-51" value="" style="endArrow=classic;html=1;rounded=0;entryX=0.471;entryY=0.2;entryDx=0;entryDy=0;entryPerimeter=0;" edge="1" parent="1" source="aRj3tGoNgCXzdDJv9T8T-20" target="aRj3tGoNgCXzdDJv9T8T-36">
          <mxGeometry width="50" height="50" relative="1" as="geometry">
            <mxPoint x="1164" y="1193" as="sourcePoint" />
            <mxPoint x="823" y="1216" as="targetPoint" />
          </mxGeometry>
        </mxCell>
      </root>
    </mxGraphModel>
  </diagram>
</mxfile>
